<svg width="135" height="29" viewBox="0 0 135 29" fill="none" xmlns="http://www.w3.org/2000/svg">
<path d="M2.33594 0.5625H7.35547L13.1562 20.0156L18.9375 0.5625H23.3711L15.2852 29H11.0078L2.33594 0.5625ZM0.304688 0.5625H5.08984L5.83203 19.3125V29H0.304688V0.5625ZM21.1836 0.5625H25.9883V29H20.4805V19.3125L21.1836 0.5625ZM41.3008 5.64062L35.1875 29H29.1523L38.0391 0.5625H41.8086L41.3008 5.64062ZM46.125 29L39.9727 5.64062L39.4062 0.5625H43.2344L52.1992 29H46.125ZM46.3398 18.3945V23.1406H33.5078V18.3945H46.3398ZM54.9336 0.5625H64.0547C65.9557 0.5625 67.5768 0.888021 68.918 1.53906C70.2591 2.1901 71.2878 3.15365 72.0039 4.42969C72.7201 5.70573 73.0781 7.28125 73.0781 9.15625C73.0781 10.6927 72.8698 12.0078 72.4531 13.1016C72.0365 14.1823 71.444 15.0872 70.6758 15.8164C69.9076 16.5326 68.9896 17.1055 67.9219 17.5352L66.1836 18.5703H58.7812L58.7617 13.8242H63.8984C64.6797 13.8242 65.3242 13.6549 65.832 13.3164C66.3529 12.9648 66.737 12.4766 66.9844 11.8516C67.2448 11.2135 67.375 10.4714 67.375 9.625C67.375 8.72656 67.2578 7.95833 67.0234 7.32031C66.8021 6.66927 66.444 6.17448 65.9492 5.83594C65.4674 5.48438 64.8359 5.30859 64.0547 5.30859H60.6562V29H54.9336V0.5625ZM67.8438 29L62.6289 16.3242L68.625 16.3047L73.957 28.7266V29H67.8438ZM86.6523 16.5977H80.832L80.8125 12.457H85.7734C86.5547 12.457 87.1927 12.3268 87.6875 12.0664C88.1953 11.793 88.5664 11.3958 88.8008 10.875C89.0482 10.3411 89.1719 9.69661 89.1719 8.94141C89.1719 8.06901 89.0612 7.3724 88.8398 6.85156C88.6185 6.31771 88.2604 5.92708 87.7656 5.67969C87.2708 5.43229 86.6263 5.30859 85.832 5.30859H82.7852V29H77.0625V0.5625H85.832C87.2513 0.5625 88.5208 0.71875 89.6406 1.03125C90.7604 1.34375 91.7109 1.81901 92.4922 2.45703C93.2734 3.09505 93.8659 3.90234 94.2695 4.87891C94.6862 5.85547 94.8945 7.00781 94.8945 8.33594C94.8945 9.50781 94.6602 10.5885 94.1914 11.5781C93.7227 12.5677 92.987 13.375 91.9844 14C90.9948 14.625 89.6992 14.9766 88.0977 15.0547L86.6523 16.5977ZM86.457 29H79.2109L81.4961 24.2734H86.457C87.2122 24.2734 87.8242 24.1107 88.293 23.7852C88.7617 23.4596 89.1003 23.0234 89.3086 22.4766C89.5169 21.9167 89.6211 21.2786 89.6211 20.5625C89.6211 19.7552 89.5234 19.0521 89.3281 18.4531C89.1458 17.8542 88.8398 17.3984 88.4102 17.0859C87.9805 16.7604 87.401 16.5977 86.6719 16.5977H81.75L81.7891 12.457H87.7656L89.1133 14.0977C90.6367 14.0456 91.8542 14.3385 92.7656 14.9766C93.6771 15.6016 94.3281 16.4219 94.7188 17.4375C95.1224 18.4401 95.3242 19.5078 95.3242 20.6406C95.3242 22.4635 94.9792 24 94.2891 25.25C93.612 26.487 92.6159 27.4245 91.3008 28.0625C89.9857 28.6875 88.3711 29 86.457 29ZM115.305 24.2734V29H103.488V24.2734H115.305ZM105.246 0.5625V29H99.5234V0.5625H105.246ZM134.973 24.2734V29H122.609V24.2734H134.973ZM124.387 0.5625V29H118.664V0.5625H124.387ZM133.312 12.0859V16.6758H122.609V12.0859H133.312ZM134.934 0.5625V5.30859H122.609V0.5625H134.934Z" fill="#4E4E4E"/>
</svg>
